# xmcd
# Track frame offsets:
# 150
# 16800
# 36422
# 53762
# 67604
# 83628
# 100224
# 119678
# 132683
# 146906
# 160456
# 178065
# 193745
# 205756
# 218760
# 233183
# 246362
# 261855
# 279732
# 292311
#
# Disc length: 4118 seconds
# Revision: 3
# Processed by: cddbd v1.5.2PL0 Copyright (c) Steve Scherf et al.
# Submitted via: VisiTrax 2.11.3.279 - For more info visit www.synapsa.com
#
DISCID=3d101414
DTITLE=Rogers, Kenny - The Best Of Kenny Rogers - Disc 1
DYEAR=2005
DGENRE=Country
TTITLE0=Rogers, Kenny - Lucille
TTITLE1=Rogers, Kenny - Coward Of The County
TTITLE2=Rogers, Kenny and Easton, Sheena - We've Got Tonight
TTITLE3=Rogers, Kenny - All I Ever Need Is You
TTITLE4=Rogers, Kenny - Green, Green Grass Of Home
TTITLE5=Rogers, Kenny and Carnes, Kim - Don't Fall In Love With A Dreamer
TTITLE6=Rogers, Kenny - Sweet Music Man
TTITLE7=Rogers, Kenny and West, Dottie - We Love Each Other
TTITLE8=Rogers, Kenny - Son, The of Hickory Holler's Tramp
TTITLE9=Rogers, Kenny and West, Dottie - Every Time Two Fools Collide
TTITLE10=Rogers, Kenny - All My Life
TTITLE11=Rogers, Kenny - I Wasn't Man Enough
TTITLE12=Rogers, Kenny - My World Begins And Ends With You
TTITLE13=Rogers, Kenny - You Are So Beautiful
TTITLE14=Rogers, Kenny - Love The World Away
TTITLE15=Rogers, Kenny and West, Dottie - Together Again
TTITLE16=Rogers, Kenny and West, Dottie - Let It Be Me
TTITLE17=Rogers, Kenny - You Were A Good Friend
TTITLE18=Rogers, Kenny - Reuben James
TTITLE19=Rogers, Kenny - Twentieth Century Fool
EXTD=
EXTT0=
EXTT1=
EXTT2=
EXTT3=
EXTT4=
EXTT5=
EXTT6=
EXTT7=
EXTT8=
EXTT9=
EXTT10=
EXTT11=
EXTT12=
EXTT13=
EXTT14=
EXTT15=
EXTT16=
EXTT17=
EXTT18=
EXTT19=
PLAYORDER=
